<svg width="24" height="31" viewBox="0 0 24 31" fill="none" xmlns="http://www.w3.org/2000/svg">
<path d="M19.8353 2.70084C20.204 1.87138 19.9291 0.902664 19.1729 0.369871C18.4167 -0.162923 17.3856 -0.114487 16.6794 0.478851L0.681026 14.0409C0.0560895 14.5737 -0.162638 15.4273 0.124833 16.1842C0.412303 16.941 1.16848 17.4374 1.99964 17.4374H8.96769L4.16192 28.2992C3.79321 29.1286 4.06818 30.0973 4.82436 30.6301C5.58053 31.1629 6.61167 31.1145 7.31785 30.5212L23.3162 16.9591C23.9412 16.4263 24.1661 15.5727 23.8724 14.8219C23.5787 14.0711 22.835 13.5686 21.9976 13.5686H15.0296L19.8353 2.70084Z" fill="#EF5353"/>
</svg>
