<svg width="23" height="15" viewBox="0 0 23 15" fill="none" xmlns="http://www.w3.org/2000/svg">
<path d="M0 6.46875V7.90625C5.75 16.5312 17.25 16.5312 23 7.90625V6.46875C17.25 -2.15625 5.75 -2.15625 0 6.46875ZM11.5 12.9375C8.32402 12.9375 5.75 10.3635 5.75 7.1875C5.75 4.01152 8.32402 1.4375 11.5 1.4375C14.676 1.4375 17.25 4.01152 17.25 7.1875C17.25 10.3635 14.676 12.9375 11.5 12.9375ZM11.5 3.95312C11.5 3.58027 11.5764 3.22988 11.6932 2.89297C11.6258 2.88848 11.5674 2.875 11.5 2.875C9.11914 2.875 7.1875 4.80664 7.1875 7.1875C7.1875 9.56836 9.11914 11.5 11.5 11.5C13.8809 11.5 15.8125 9.56836 15.8125 7.1875C15.8125 7.12012 15.7945 7.06172 15.7945 6.99434C15.4621 7.11113 15.1072 7.1875 14.7344 7.1875C12.9465 7.1875 11.5 5.74102 11.5 3.95312Z" fill="#3A4CA7"/>
</svg>
